<?xml version="1.0" standalone="no"?>
<!DOCTYPE svg PUBLIC "-//W3C//DTD SVG 20010904//EN"
 "http://www.w3.org/TR/2001/REC-SVG-20010904/DTD/svg10.dtd">
<svg version="1.0" xmlns="http://www.w3.org/2000/svg"
 width="491.000000pt" height="500.000000pt" viewBox="0 0 491.000000 500.000000"
 preserveAspectRatio="xMidYMid meet">
<rect width="100%" height="100%" fill="white" />
<g transform="translate(0.000000,500.000000) scale(0.100000,-0.100000)"
fill="#000000" stroke="none">
<path d="M2312 4639 c-109 -15 -303 -74 -411 -125 -152 -71 -283 -165 -401
-284 -245 -246 -373 -507 -420 -855 -15 -110 -13 -2838 2 -2853 14 -14 97 -16
118 -2 13 8 15 78 17 512 2 277 3 520 3 541 0 62 27 47 151 -85 63 -68 164
-175 224 -238 61 -64 142 -149 180 -190 554 -592 510 -554 630 -548 47 2 60 6
60 19 0 9 -70 90 -156 180 -85 90 -212 224 -282 298 l-127 134 0 228 c0 126 4
230 9 233 18 12 39 -7 172 -152 74 -80 202 -219 284 -307 83 -88 233 -250 334
-360 269 -294 247 -275 330 -275 72 0 101 6 101 21 0 8 -212 241 -504 554 -72
77 -176 190 -231 250 -130 143 -319 349 -417 452 l-78 83 0 279 c0 257 1 281
18 290 9 5 181 11 382 13 348 4 368 6 430 27 258 91 433 268 512 521 19 63 23
96 23 210 0 153 -18 231 -82 351 -141 270 -457 438 -751 399 -194 -26 -320
-88 -457 -225 -75 -75 -99 -106 -138 -185 -89 -178 -87 -140 -87 -1248 0 -949
0 -963 -19 -960 -19 3 -87 73 -393 400 l-119 128 4 767 c3 741 4 771 24 853
99 399 338 701 698 880 173 87 310 121 516 127 180 6 304 -10 451 -58 377
-123 699 -437 823 -804 49 -144 65 -251 65 -429 0 -127 -5 -184 -21 -261 -61
-288 -210 -536 -434 -723 -253 -211 -544 -311 -907 -312 -37 0 -69 -4 -73 -9
-3 -6 36 -54 87 -108 331 -354 1067 -1132 1134 -1201 l81 -83 83 3 c52 2 85 7
87 15 2 6 -112 134 -254 285 -889 941 -887 940 -868 954 10 7 43 18 74 25 103
20 156 37 262 78 387 152 702 489 829 886 58 184 65 231 64 460 0 180 -3 223
-22 301 -135 568 -554 983 -1115 1105 -108 23 -381 33 -495 18z m385 -852
c184 -60 333 -208 395 -392 33 -102 33 -269 -1 -374 -60 -183 -203 -325 -392
-392 -61 -21 -82 -23 -404 -27 -228 -2 -349 0 -368 7 l-28 11 3 343 c5 376 7
394 70 523 42 85 146 197 229 247 63 37 161 71 229 80 69 10 197 -3 267 -26z"/>
</g>
</svg>
