<?xml version="1.0" standalone="no"?>
<!DOCTYPE svg PUBLIC "-//W3C//DTD SVG 20010904//EN"
 "http://www.w3.org/TR/2001/REC-SVG-20010904/DTD/svg10.dtd">
<svg version="1.0" xmlns="http://www.w3.org/2000/svg"
 width="583.000000pt" height="600.000000pt" viewBox="0 0 583.000000 600.000000"
 preserveAspectRatio="xMidYMid meet">
<rect width="100%" height="100%" fill="white" />
<g transform="translate(0.000000,600.000000) scale(0.100000,-0.100000)"
fill="#000000" stroke="none">
<path d="M2741 4714 c-429 -72 -795 -388 -931 -805 -60 -184 -61 -190 -58
-1439 l3 -1135 55 0 55 0 5 445 c4 391 7 445 20 448 16 3 44 -25 305 -302 354
-377 539 -572 553 -584 18 -14 148 -17 157 -3 3 6 -81 101 -187 212 -291 305
-277 288 -284 350 -9 89 6 329 21 329 7 0 113 -109 236 -242 123 -133 311
-335 417 -450 l193 -208 69 0 c38 0 72 4 75 10 3 5 -103 127 -237 272 -134
144 -324 350 -422 457 -99 108 -216 235 -262 282 l-82 86 -4 204 c-2 112 -1
220 2 239 l5 35 310 6 c341 8 351 9 488 81 80 42 193 154 240 238 73 131 98
315 62 455 -54 211 -227 390 -435 448 -301 85 -638 -79 -750 -364 -48 -122
-50 -152 -50 -986 0 -647 -2 -783 -13 -783 -8 0 -67 57 -133 127 -65 70 -153
163 -194 206 -41 43 -80 89 -87 100 -19 35 -17 1108 2 1245 62 434 368 777
793 889 83 22 120 26 257 26 143 1 171 -2 264 -26 346 -89 639 -360 750 -695
72 -214 68 -494 -10 -701 -92 -248 -281 -460 -514 -579 -151 -77 -274 -108
-462 -118 -94 -4 -143 -11 -143 -18 0 -11 80 -97 469 -506 102 -108 251 -265
331 -350 79 -85 172 -183 206 -217 l61 -63 71 0 c51 0 72 4 72 13 0 6 -66 82
-148 168 -81 85 -212 225 -292 310 -80 85 -183 195 -230 244 -201 211 -260
277 -260 289 0 8 31 19 83 30 194 41 355 119 508 246 197 163 333 376 394 615
107 420 -8 838 -317 1146 -261 261 -655 385 -1027 323z m342 -689 c248 -75
399 -332 346 -587 -25 -119 -125 -259 -230 -320 -25 -15 -74 -36 -110 -47 -60
-20 -83 -21 -354 -19 l-290 3 0 295 c0 334 5 362 77 470 102 153 275 238 455
224 33 -3 81 -11 106 -19z"/>
</g>
</svg>
